<svg width="960" height="248" xmlns="http://www.w3.org/2000/svg" xmlns:xlink="http://www.w3.org/1999/xlink"><defs><path id="a" d="M2.88904642e-15 -2.84217094e-14L959.654773 -2.84217094e-14 959.654773 202.527013 2.88904642e-15 202.527013z"/></defs><g fill="none" fill-rule="evenodd"><path d="M370.403 100.583c-1.682 10.66-9.92 18.512-25.691 18.512h-20.158l6.114-38.77h19.802c16.304 0 21.611 9.621 19.933 20.258zM355.645 47.83h-51.437a4.027 4.027 0 0 0-3.977 3.399l-22.957 145.569a3.725 3.725 0 0 0 3.68 4.305h27.223a4.027 4.027 0 0 0 3.978-3.399l6.743-42.747a4.025 4.025 0 0 1 3.977-3.399h24.747c28.921 0 53.465-21.1 57.949-49.691 4.522-28.834-18-53.977-49.926-54.037zm129.9 100.973c-2.255 14.297-13.98 24.829-29.015 24.829-2.966 0-5.684-.409-8.119-1.192l-.001.002c-11.147-3.582-17.508-14.291-15.676-25.903 2.256-14.297 14.016-24.828 29.051-24.828 2.966 0 5.684.409 8.118 1.192l.001-.003c11.148 3.583 17.472 14.291 15.641 25.903zm37.971-55.094h-25.84a4.027 4.027 0 0 0-3.978 3.399l-.845 5.363h-.001s-20.061-21.914-55.573-7.117c-20.368 8.488-30.151 26.036-34.305 38.83 0 0-13.217 39.029 16.656 60.47 0 0 27.698 20.639 58.886-1.276l-.539 3.42a3.725 3.725 0 0 0 3.68 4.305h25.84a4.025 4.025 0 0 0 3.977-3.399l15.722-99.69a3.726 3.726 0 0 0-3.68-4.305zm94.86 2.468l-31.149 52.584-15.809-52.193a4.027 4.027 0 0 0-3.854-2.859h-28.11a3.02 3.02 0 0 0-2.875 3.946l28.328 87.92-25.618 41.433c-1.244 2.012.203 4.608 2.569 4.608h30.276a5.031 5.031 0 0 0 4.307-2.429l79.122-130.896c1.216-2.012-.233-4.582-2.585-4.582h-30.272a5.032 5.032 0 0 0-4.33 2.468m124.172 4.406c-1.681 10.66-9.92 18.512-25.691 18.512h-20.158l6.114-38.77h19.802c16.304 0 21.611 9.621 19.933 20.258zM727.79 47.83h-51.437a4.027 4.027 0 0 0-3.977 3.399l-22.957 145.569a3.725 3.725 0 0 0 3.68 4.305h27.223a4.027 4.027 0 0 0 3.978-3.399l6.743-42.747a4.027 4.027 0 0 1 3.977-3.399h24.747c28.921 0 53.465-21.1 57.949-49.691 4.522-28.834-18-53.977-49.926-54.037z" fill="#8B949E"/><g transform="translate(0 .933)"><mask id="b" fill="#fff"><use xlink:href="#a"/></mask><path d="M857.69 147.87c-2.255 14.297-13.98 24.829-29.015 24.829-2.966 0-5.684-.41-8.118-1.192l-.001.002c-11.148-3.582-17.51-14.291-15.677-25.903 2.256-14.297 14.016-24.828 29.05-24.828 2.967 0 5.685.409 8.12 1.192v-.003c11.148 3.583 17.473 14.29 15.64 25.903zm37.97-55.094h-25.84a4.027 4.027 0 0 0-3.977 3.399l-.845 5.363h-.001s-20.061-21.914-55.573-7.117c-20.368 8.488-30.151 26.036-34.305 38.83 0 0-13.217 39.029 16.656 60.47 0 0 27.698 20.639 58.887-1.276l-.54 3.42a3.725 3.725 0 0 0 3.68 4.305h25.84a4.027 4.027 0 0 0 3.978-3.4l15.72-99.69a3.726 3.726 0 0 0-3.68-4.304zm29.07-42.48l-22.956 145.569a3.725 3.725 0 0 0 3.68 4.305h27.22a4.027 4.027 0 0 0 3.979-3.4l22.956-145.567a3.725 3.725 0 0 0-3.68-4.306h-27.221a4.025 4.025 0 0 0-3.977 3.4M70.455 52.47a6.743 6.743 0 0 1 6.662-5.69h58.704c10.66.02 20.852.736 28.75 4.813C164.672 21.84 138.216-.156 107.52 0H36.516c-3.276.15-6.303 2.578-6.844 6.189L.12 193.178c-.758 3.819 2.19 7.066 5.762 7.066h41.193L70.455 52.47" fill="#8B949E" mask="url(#b)"/></g><path d="M72.58 122.647l8.867-56.11c.486-2.973 2.148-5.944 6.014-5.944h49.522c9.418.083 19.345.932 26.677 4.776-.041 2.119-.225 5.535-.565 7.705-4.474 28.524-28.961 49.575-57.815 49.575l-32.7-.002" fill="#8B949E"/><g transform="translate(0 .933)" fill="#8B949E"><path d="M175.726 71.189c-.11 2.544-.254 4.83-.64 7.286-5.064 32.288-33.166 56.118-65.828 56.118H76.85a7.345 7.345 0 0 0-7.254 6.2l-15.76 99.378c-.576 3.62 2.227 6.896 5.893 6.896l34.707-.004c3.74 0 6.639-2.736 7.235-6.07l8.59-53.871a6.747 6.747 0 0 1 6.666-5.696l20.64-.003c32.662 0 60.765-23.83 65.829-56.118 3.595-22.92-7.943-43.774-27.671-54.116"/><path d="M70.455 52.47a6.743 6.743 0 0 1 6.662-5.69h58.704c10.66.02 20.852.737 28.75 4.814C164.672 21.84 138.216-.156 107.52 0H36.516c-3.276.15-6.303 2.578-6.844 6.189L.12 193.178c-.758 3.819 2.19 7.066 5.762 7.066h41.193L70.455 52.47"/></g></g></svg>